# xmcd CD database file
#
# Track frame offsets:
#	150
#	17384
#	33268
#	52843
#	71313
#	95552
#	109678
#	128901
#	148574
#	167767
#	190525
#	215348
#	229704
#	246012
#	263994
#	282045
#	302952
#
# Disc length: 4271 seconds
#
# Revision: 0
# Processed by: cddbd v1.5.1PL0 Copyright (c) Steve Scherf et al.
# Submitted via: CDex 1.51
#
DISCID=de10ad11
DTITLE=Anita Harris - The Wee Small Hours
DYEAR=2005
DGENRE=Jazz
TTITLE0=Drop Me Off I Harlem
TTITLE1=Skylark
TTITLE2=The Surrey With The Fringe On Top
TTITLE3=Our Day Will Come
TTITLE4=Isn't It A Pity?
TTITLE5=Miss Celie's Blues
TTITLE6=The Touch Of Your Lips
TTITLE7=In The Still Of The Night
TTITLE8=In The Wee Small Hours Of The Morning
TTITLE9=Softly As In A Morining Sunrise
TTITLE10=The Wailing Of The Willow
TTITLE11=I Wish I Knew
TTITLE12=A Sunday Kind Of Love
TTITLE13=I Was Doing All Right
TTITLE14=The Gypsy
TTITLE15=No Soap, No Hope Blues
TTITLE16=Some Other Time
EXTD=YEAR: 2005
EXTT0=
EXTT1=
EXTT2=
EXTT3=
EXTT4=
EXTT5=
EXTT6=
EXTT7=
EXTT8=
EXTT9=
EXTT10=
EXTT11=
EXTT12=
EXTT13=
EXTT14=
EXTT15=
EXTT16=
PLAYORDER=
